<svg width="23" height="23" viewBox="0 0 23 23" fill="none" xmlns="http://www.w3.org/2000/svg">
<path fill-rule="evenodd" clip-rule="evenodd" d="M4.59819 0.0867746C4.42715 0.136339 4.27996 0.183682 4.27108 0.191994C4.25082 0.210931 4.97689 3.07556 5.01936 3.14433C5.04211 3.18113 5.1334 3.17446 5.35749 3.11965C5.52632 3.0784 5.68141 3.02937 5.70216 3.01075C5.73033 2.9855 5.15904 0.612873 4.99346 0.0673932C4.96543 -0.0249352 4.98755 -0.0260466 4.59819 0.0867746ZM15.7818 0.147453C15.6249 0.257429 15.5996 0.341711 15.4828 1.14537C15.422 1.56372 15.3514 1.9449 15.326 1.99247C15.2469 2.14027 15.079 2.22331 14.9267 2.18984C14.814 2.16508 14.6965 2.03621 14.2787 1.47921C13.7391 0.760012 13.62 0.659593 13.4036 0.74192C13.3384 0.766724 13.0299 0.979831 12.718 1.21552L12.1508 1.64409L11.7475 1.61866C10.5742 1.54483 9.29368 1.81888 8.1858 2.38103C7.48195 2.73812 6.94149 3.13188 6.37527 3.70003C5.1992 4.88007 4.50876 6.29612 4.30231 7.95141C4.25015 8.36953 4.24224 8.39118 4.14175 8.39118C4.08359 8.39118 3.98141 8.44621 3.91468 8.51342C3.81215 8.61673 3.77327 8.73391 3.66394 9.26912C3.59272 9.61754 3.51822 9.90257 3.49827 9.90257C3.47837 9.90257 3.22789 9.73823 2.94164 9.5373C2.19336 9.01209 2.25356 9.00014 1.41949 9.83985C0.858596 10.4045 0.755259 10.5294 0.755259 10.6424C0.755259 10.7374 0.864727 10.936 1.13289 11.3277C1.34058 11.631 1.51052 11.8901 1.51052 11.9034C1.51052 11.9168 1.22565 11.986 0.877433 12.0572C0.342532 12.1666 0.225422 12.2055 0.122174 12.3081L0 12.4295V13.3032V14.1769L0.122174 14.2984C0.2252 14.4008 0.341777 14.4398 0.866326 14.547C1.20841 14.617 1.49697 14.6812 1.50759 14.6896C1.51816 14.698 1.3508 14.9637 1.13569 15.2798C0.785114 15.7948 0.747351 15.8699 0.772141 16.002C0.793466 16.1156 0.945184 16.2947 1.43468 16.7836C2.25751 17.6054 2.19296 17.5924 2.92965 17.0848C3.23366 16.8753 3.49414 16.7038 3.50849 16.7038C3.52279 16.7038 3.59272 16.9889 3.66394 17.3373C3.77327 17.8725 3.81215 17.9897 3.91468 18.093L4.03601 18.2152H4.90918H5.78235L5.90368 18.093C6.00622 17.9897 6.04509 17.8725 6.15443 17.3373C6.22564 16.9889 6.29557 16.7038 6.30988 16.7038C6.32423 16.7038 6.5847 16.8753 6.88871 17.0848C7.58062 17.5616 7.60279 17.5618 8.06741 17.1001L8.38715 16.7822L8.40465 17.4876C8.41958 18.0908 8.43597 18.2235 8.51763 18.4034C8.64229 18.678 8.80849 18.8927 8.99531 19.0209L9.14583 19.124L9.16 20.3477L9.17417 21.5714L9.29861 21.8381C9.46033 22.1848 9.71929 22.4452 10.0575 22.6013C10.3238 22.7241 10.3482 22.727 11.2602 22.742C12.277 22.7588 12.615 22.7194 12.906 22.5501C13.1736 22.3945 13.4157 22.1333 13.5452 21.8604C13.6605 21.6177 13.6614 21.6069 13.676 20.3712L13.6906 19.1265L13.8661 19.0038C13.9626 18.9363 14.1016 18.7862 14.1751 18.6704C14.4068 18.3048 14.4388 18.1153 14.4388 17.1052C14.4388 15.6308 14.5702 15.3241 15.4776 14.6819C16.0751 14.259 16.1913 14.1527 16.1443 14.0722C16.1226 14.035 16.0138 13.904 15.9026 13.7812L15.7004 13.5578L15.5472 13.6863C15.4629 13.757 15.2077 13.9483 14.98 14.1114C14.3339 14.5745 14.0104 14.9838 13.8093 15.5925C13.7256 15.8457 13.7106 16.0196 13.6876 16.9964L13.6613 18.1113L13.5368 18.2745C13.3027 18.5814 13.3488 18.5752 11.3838 18.5612L9.61844 18.5486L9.47339 18.4451C9.19074 18.2434 9.17688 18.1788 9.14818 16.9261C9.11904 15.6536 9.08638 15.4918 8.7558 14.9825C8.53882 14.6482 8.33432 14.4514 7.81915 14.0815C7.26643 13.6845 6.98494 13.4389 6.61269 13.0289C5.83277 12.1698 5.29694 11.069 5.05828 9.83589C4.96627 9.36056 4.98013 8.02151 5.08196 7.54657C5.49206 5.63413 6.61735 4.08166 8.24738 3.17949C9.09802 2.70873 9.97275 2.4498 10.9846 2.36929C11.3138 2.34311 11.3289 2.346 11.3289 2.43557C11.3289 2.56964 11.3749 2.6433 11.8892 3.33236C12.3663 3.97141 12.4308 4.12673 12.2937 4.30539C12.1563 4.48453 12.0778 4.48889 11.2164 4.36504C10.3103 4.2348 10.1892 4.24591 10.0877 4.46871C10.0079 4.64398 9.70805 6.83657 9.74435 6.97922C9.79539 7.17966 9.94418 7.23567 10.7288 7.34974C11.1344 7.40873 11.5158 7.46945 11.5763 7.48465C11.8023 7.54137 11.8951 7.87166 11.7389 8.06272C11.6966 8.11432 11.3799 8.36784 11.035 8.62611C10.4047 9.0982 10.3515 9.15439 10.3515 9.349C10.3515 9.46885 11.7558 11.3778 11.9013 11.4557C12.0932 11.5584 12.2075 11.5061 12.8699 11.012C13.2319 10.7421 13.5721 10.5101 13.6261 10.4965C13.7731 10.4594 13.9641 10.5397 14.0371 10.6693C14.0949 10.7718 14.0908 10.8662 13.9998 11.5326C13.9436 11.9441 13.9044 12.3588 13.9128 12.4542C13.9382 12.7466 14.0207 12.7784 15.1977 12.9494C16.4325 13.1289 16.6262 13.1371 16.7479 13.0154C16.8563 12.9069 16.8588 12.896 16.9914 11.9696C17.0906 11.2768 17.1092 11.2056 17.2155 11.1139C17.3311 11.0143 17.475 10.9884 17.615 11.0422C17.6555 11.0577 17.8994 11.3528 18.1568 11.6978C18.4143 12.0429 18.6649 12.3603 18.7137 12.403C18.9207 12.5845 19.0359 12.5292 20.0809 11.7464C21.0683 11.0068 21.1819 10.8912 21.1289 10.68C21.1161 10.6288 20.8876 10.2969 20.6212 9.94218C20.3548 9.58754 20.1238 9.25614 20.1078 9.20577C20.067 9.07726 20.1451 8.89843 20.2809 8.80943C20.3899 8.73791 20.439 8.74004 21.2364 8.85109C22.0963 8.9708 22.2194 8.96702 22.3438 8.81703C22.396 8.75413 22.7427 6.59577 22.7456 6.3155C22.7462 6.26184 22.7017 6.16592 22.6467 6.10235C22.5544 5.99562 22.4805 5.97699 21.6869 5.8603C21.157 5.78242 20.8031 5.70987 20.7645 5.67129C20.6615 5.5682 20.6167 5.34696 20.675 5.22889C20.7035 5.17115 20.9963 4.91977 21.3258 4.67026C21.9932 4.16474 22.1246 4.03449 22.1246 3.87842C22.1246 3.80992 21.8831 3.44732 21.4527 2.86961C20.6054 1.73242 20.5969 1.72326 20.3865 1.72326C20.2438 1.72326 20.1256 1.79363 19.5618 2.21411C19.1998 2.48402 18.8602 2.71589 18.807 2.72927C18.6545 2.76772 18.4653 2.65161 18.4118 2.48678C18.3747 2.37227 18.3866 2.18686 18.4661 1.64271C18.5942 0.76548 18.5946 0.689332 18.4705 0.545083C18.3758 0.434884 18.3076 0.419681 17.171 0.254984C16.5113 0.159366 15.951 0.0805512 15.9259 0.07984C15.9007 0.0790843 15.8359 0.109534 15.7818 0.147453ZM17.7595 1.11928C17.7693 1.12906 17.7439 1.36399 17.703 1.64133C17.5973 2.35973 17.6049 2.59525 17.7426 2.86725C18.0171 3.40926 18.6923 3.64478 19.2141 3.3805C19.2877 3.34321 19.5636 3.15251 19.8271 2.95669C20.0907 2.76088 20.3124 2.60827 20.3198 2.6176C20.4991 2.84187 21.1555 3.73919 21.1697 3.77929C21.1807 3.8105 21.0035 3.97088 20.7645 4.14594C20.0638 4.65919 19.8926 4.90381 19.8923 5.39226C19.8921 5.84452 20.1548 6.24597 20.5625 6.41645C20.6504 6.45321 20.9916 6.52287 21.3207 6.57124C21.6498 6.61964 21.9246 6.66481 21.9314 6.67165C21.9382 6.67846 21.8949 7.00314 21.8352 7.39312C21.7755 7.78315 21.7263 8.11388 21.7257 8.12815C21.7252 8.14242 21.4699 8.11606 21.1583 8.06956C20.8468 8.02306 20.4895 7.99466 20.3644 8.00648C19.6944 8.06969 19.2348 8.69466 19.372 9.35589C19.4122 9.54944 19.4981 9.69809 19.818 10.1272C20.0359 10.4196 20.2143 10.6662 20.2143 10.6753C20.2143 10.6844 19.9463 10.8931 19.6189 11.1391L19.0235 11.5864L18.6304 11.068C18.1227 10.3985 17.9468 10.28 17.4633 10.2814C17.0601 10.2827 16.8422 10.3795 16.5966 10.6667C16.4075 10.8877 16.3325 11.1281 16.2568 11.7558C16.2267 12.005 16.1876 12.2323 16.1699 12.261C16.1457 12.3002 15.96 12.2881 15.4215 12.2121C14.5964 12.0957 14.6685 12.1745 14.772 11.5029C14.8719 10.8543 14.8603 10.6211 14.7145 10.3419C14.4938 9.91915 14.076 9.69067 13.6108 9.73836C13.3193 9.76824 13.1912 9.83643 12.6244 10.2634L12.1607 10.6127L11.7226 10.0278C11.4816 9.70605 11.2845 9.42893 11.2845 9.4119C11.2845 9.39492 11.5038 9.21511 11.772 9.0124C12.0401 8.80966 12.3105 8.57023 12.3728 8.48026C12.7477 7.93891 12.5854 7.1882 12.022 6.85782C11.8753 6.77181 11.6776 6.72251 11.1904 6.65041C10.839 6.59835 10.5453 6.55092 10.5379 6.54501C10.516 6.52745 10.7177 5.12683 10.747 5.0926C10.7618 5.0754 11.0437 5.10114 11.3735 5.14981C12.1729 5.26779 12.4542 5.21356 12.7911 4.87643C12.9962 4.67123 13.0724 4.49329 13.0959 4.16496C13.1229 3.78685 13.0445 3.60615 12.5957 3.01328C12.4087 2.76621 12.2621 2.54612 12.2699 2.52421C12.2835 2.48585 13.3962 1.63435 13.4326 1.63435C13.4424 1.63435 13.6231 1.86426 13.834 2.14521C14.0449 2.42619 14.2923 2.70473 14.3837 2.76425C14.8556 3.07147 15.4123 3.00368 15.8255 2.58871C16.0256 2.38765 16.099 2.17121 16.1944 1.501C16.2345 1.21983 16.2738 0.967918 16.2819 0.941157C16.2921 0.907506 16.5188 0.924665 17.0192 0.99699C17.4166 1.05447 17.7497 1.1095 17.7595 1.11928ZM1.21863 2.36987C1.1045 2.5299 1.01853 2.66664 1.02755 2.6737C1.18629 2.79759 3.58326 4.49329 3.61911 4.50707C3.66403 4.52432 4.11367 3.95501 4.07915 3.92461C3.97595 3.8337 1.48742 2.07888 1.46169 2.07888C1.44214 2.07888 1.33277 2.20984 1.21863 2.36987ZM15.6101 3.65664C14.6916 3.8565 13.9358 4.45084 13.5326 5.29015C13.2974 5.7798 13.2254 6.09666 13.2267 6.63529C13.2287 7.44442 13.5216 8.14126 14.1074 8.73075C14.407 9.03223 14.5369 9.12603 14.886 9.29321C15.4361 9.55668 15.6909 9.61421 16.2825 9.60856C16.6798 9.60474 16.8376 9.58224 17.1266 9.48809C17.952 9.21915 18.5719 8.67483 18.9527 7.8845C19.515 6.71744 19.2201 5.24921 18.246 4.36638C17.9123 4.06388 17.294 3.74737 16.86 3.65673C16.4799 3.57738 15.9745 3.57734 15.6101 3.65664ZM8.31802 4.50116C7.25733 5.27339 6.50842 6.43939 6.24772 7.72439C5.83464 9.76041 6.66987 11.8647 8.37449 13.0825C8.56996 13.2222 9.03023 13.4817 9.39728 13.6593C10.009 13.9552 10.0893 14.0083 10.3598 14.2952C10.6994 14.6554 10.9126 15.0596 10.9804 15.4717C11.0677 16.0022 11.0166 15.9481 11.4314 15.9481H11.7988L11.7681 15.6481C11.7263 15.2389 11.6896 15.0853 11.5527 14.7465C11.3964 14.3599 11.1599 14.0113 10.8473 13.7066C10.5068 13.3747 10.345 13.2692 9.73391 12.9808C9.0691 12.6671 8.70382 12.428 8.29381 12.0383C7.54264 11.3243 7.05038 10.3296 6.9283 9.27885C6.74659 7.71496 7.4329 6.10359 8.67437 5.17933C8.83933 5.05655 8.97425 4.94 8.97425 4.9203C8.97425 4.88781 8.62017 4.30152 8.60053 4.30152C8.59595 4.30152 8.4688 4.39136 8.31802 4.50116ZM16.7622 4.41216C17.5659 4.62163 18.207 5.25743 18.4211 6.05741C18.6177 6.79194 18.3778 7.63619 17.8116 8.20274C16.9233 9.09153 15.5315 9.08611 14.6362 8.19034C13.7431 7.2967 13.7498 5.89982 14.6515 5.01708C15.2391 4.44181 16.0187 4.21839 16.7622 4.41216ZM1.88028 6.13929C1.09406 6.33875 0.438494 6.51447 0.423434 6.52976C0.393223 6.56048 0.526771 7.14783 0.576751 7.20407C0.600386 7.23065 3.25072 6.60391 3.53874 6.50367C3.60583 6.48029 3.43123 5.76673 3.35983 5.77255C3.33233 5.77482 2.66651 5.93987 1.88028 6.13929ZM4.54835 10.7886C4.58797 10.9214 4.62041 11.0344 4.62041 11.0398C4.62041 11.0451 4.51547 11.0739 4.38716 11.1038C3.47877 11.3153 2.74803 12.1467 2.64136 13.0901C2.55162 13.8836 2.99815 14.7963 3.67767 15.2084C4.75533 15.8618 6.08325 15.5826 6.77529 14.557L6.9191 14.3439L7.04705 14.4482C7.11738 14.5056 7.30771 14.6459 7.47 14.7601C7.82115 15.0073 8.08589 15.297 8.21841 15.579L8.31509 15.7847L7.91324 16.1868L7.5114 16.5888L7.06309 16.2854C6.81648 16.1184 6.53903 15.9627 6.44653 15.9392C6.13426 15.8599 5.78373 16.0304 5.62539 16.3385C5.59127 16.405 5.51708 16.6844 5.46056 16.9595L5.35776 17.4595H4.90634H4.45487L4.3801 17.0829C4.21923 16.2723 4.08702 16.0558 3.68735 15.9481C3.42919 15.8786 3.25503 15.9417 2.74661 16.2891L2.30745 16.5892L1.96625 16.2479L1.62505 15.9065L1.92711 15.4639C2.09327 15.2205 2.24663 14.9448 2.26795 14.8513C2.35312 14.4778 2.11273 14.087 1.72728 13.9725C1.60675 13.9367 1.33872 13.8737 1.13169 13.8326L0.755259 13.7578V13.3033V12.8489L1.25471 12.7494C1.52944 12.6946 1.80693 12.6225 1.8714 12.5891C2.15706 12.4413 2.33864 12.0649 2.26977 11.7631C2.24947 11.6741 2.10029 11.4069 1.9383 11.1696C1.77632 10.9322 1.6438 10.7246 1.6438 10.7081C1.6438 10.6917 1.79285 10.5302 1.975 10.3491L2.30616 10.0199L2.77393 10.337C3.27804 10.6786 3.44371 10.7361 3.7137 10.6628C4.01091 10.5823 4.21692 10.3333 4.28765 9.96925C4.32181 9.79353 4.3231 9.79588 4.39925 10.1693C4.44159 10.3771 4.50872 10.6558 4.54835 10.7886ZM5.04806 12.0474C5.30663 12.558 5.59469 12.9743 6.0821 13.5417L6.3252 13.8247L6.22044 14.0224C6.07641 14.294 5.73246 14.5909 5.42907 14.7054C5.22399 14.7828 5.10808 14.7974 4.82033 14.7821C4.22532 14.7503 3.80735 14.4655 3.54372 13.912C3.41963 13.6515 3.41164 13.6046 3.43034 13.2452C3.4446 12.9707 3.47872 12.7996 3.54807 12.6551C3.77323 12.1856 4.29147 11.8288 4.76404 11.8179C4.92073 11.8143 4.93642 11.8269 5.04806 12.0474ZM18.6149 14.459V14.8368H19.9255H21.2361V14.459V14.0811H19.9255H18.6149V14.459ZM18.2159 16.3291C18.085 16.4905 17.9978 16.6356 18.0198 16.6552C18.0417 16.6746 18.5479 17.097 19.1447 17.594L20.2299 18.4974L20.4654 18.2341C20.5949 18.0893 20.7013 17.9563 20.7019 17.9386C20.7027 17.9141 18.9217 16.4065 18.5219 16.0932C18.4621 16.0464 18.4169 16.0812 18.2159 16.3291ZM11.0623 17.2595V17.8152H11.4399H11.8176V17.2595V16.7038H11.4399H11.0623V17.2595ZM16.3491 18.3913V19.7266H16.7274H17.1057L17.0939 18.4042L17.0822 17.0817L16.7157 17.0688L16.3491 17.0559V18.3913ZM12.9283 19.7044V20.0823H11.4177H9.90722V19.7341C9.90722 19.5425 9.92055 19.3725 9.93685 19.3562C9.95311 19.3399 10.6328 19.3266 11.4474 19.3266H12.9283V19.7044ZM12.9283 21.1129C12.9283 21.4551 12.8133 21.7075 12.588 21.8604C12.4274 21.9693 12.405 21.9718 11.4656 21.9838C10.3872 21.9977 10.3174 21.9823 10.0732 21.6764C9.97368 21.5517 9.93854 21.4531 9.91975 21.246C9.87954 20.8019 9.74524 20.838 11.4386 20.838H12.9283V21.1129Z" fill="white"/>
</svg>
